<svg width="237" height="37" viewBox="0 0 237 37" fill="none" xmlns="http://www.w3.org/2000/svg">
<path d="M3.82422 6.36719C2.10547 6.36719 0.777344 5.01953 0.777344 3.39844C0.777344 1.77734 2.10547 0.429688 3.82422 0.429688C5.54297 0.429688 6.87109 1.77734 6.87109 3.39844C6.87109 5.01953 5.54297 6.36719 3.82422 6.36719ZM0.972656 30V9.0625H6.67578V30H0.972656ZM10.6992 30V1.81641H16.4023V17.4414H16.5195L23.5898 9.0625H30.0547L22.1445 18.0664L30.4453 30H23.8633L17.8672 21.4453L16.4023 23.0664V30H10.6992ZM38.1406 30.332C33.9414 30.332 31.1094 27.6953 31.1094 24.0039V23.9648C31.1094 20.1562 34.0586 17.9297 39.2539 17.5977L44.4297 17.2852V15.9961C44.4297 14.1406 43.2188 12.9883 40.9922 12.9883C38.8633 12.9883 37.5742 13.9844 37.3008 15.332L37.2617 15.5078H32.0469L32.0664 15.2734C32.3789 11.4062 35.6992 8.63281 41.2266 8.63281C46.6367 8.63281 50.1328 11.4258 50.1328 15.6445V30H44.4297V26.875H44.3125C43.1211 29.0234 40.8945 30.332 38.1406 30.332ZM36.7539 23.7109C36.7539 25.2539 38.0234 26.1719 39.9961 26.1719C42.5547 26.1719 44.4297 24.5312 44.4297 22.3438V20.8398L40.1133 21.1133C37.9062 21.25 36.7539 22.1875 36.7539 23.6719V23.7109ZM54.0195 30V1.81641H59.7227V17.4414H59.8398L66.9102 9.0625H73.375L65.4648 18.0664L73.7656 30H67.1836L61.1875 21.4453L59.7227 23.0664V30H54.0195ZM75.3477 36.8359V9.0625H81.0508V12.7148H81.1875C82.3203 10.1758 84.6055 8.63281 87.5742 8.63281C92.8867 8.63281 96.1289 12.6953 96.1289 19.5117V19.5312C96.1289 26.3281 92.8867 30.4297 87.6523 30.4297C84.6641 30.4297 82.3008 28.9062 81.168 26.4258H81.0508V36.8359H75.3477ZM85.6992 25.7031C88.5312 25.7031 90.3281 23.3398 90.3281 19.5312V19.5117C90.3281 15.6836 88.5312 13.3594 85.6992 13.3594C82.9258 13.3594 81.0312 15.7422 81.0312 19.5312V19.5508C81.0312 23.3203 82.9258 25.7031 85.6992 25.7031ZM99.0977 30V9.0625H104.801V12.7148H104.918C105.543 10.1367 107.242 8.63281 109.684 8.63281C110.309 8.63281 110.895 8.73047 111.324 8.84766V13.8672C110.855 13.6719 110.074 13.5547 109.254 13.5547C106.441 13.5547 104.801 15.2344 104.801 18.2812V30H99.0977ZM122.574 30.4297C116.207 30.4297 112.203 26.3477 112.203 19.5312V19.4922C112.203 12.7539 116.305 8.63281 122.555 8.63281C128.824 8.63281 132.945 12.7148 132.945 19.4922V19.5312C132.945 26.3672 128.902 30.4297 122.574 30.4297ZM122.594 25.957C125.367 25.957 127.145 23.6133 127.145 19.5312V19.4922C127.145 15.4492 125.328 13.1055 122.555 13.1055C119.801 13.1055 118.004 15.4492 118.004 19.4922V19.5312C118.004 23.6328 119.781 25.957 122.594 25.957ZM144.508 30.4297C138.707 30.4297 135.484 27.7539 135.035 23.7891L135.016 23.6133H140.582L140.621 23.7891C140.992 25.4297 142.223 26.3867 144.508 26.3867C146.656 26.3867 147.965 25.5469 147.965 24.1992V24.1797C147.965 23.0664 147.262 22.4219 145.211 21.9727L141.656 21.2305C137.594 20.3711 135.543 18.3398 135.543 15.2148V15.1953C135.543 11.2109 138.98 8.63281 144.312 8.63281C149.879 8.63281 152.984 11.582 153.121 15.2539V15.4492H147.867L147.848 15.293C147.652 13.7891 146.422 12.6562 144.312 12.6562C142.34 12.6562 141.109 13.5352 141.109 14.8828V14.9023C141.109 15.9766 141.832 16.6797 143.941 17.1289L147.496 17.8906C151.871 18.8086 153.668 20.5273 153.668 23.6133V23.6328C153.668 27.7344 149.898 30.4297 144.508 30.4297ZM164.801 30.4297C160.152 30.4297 157.965 28.6328 157.965 24.1406V13.3594H155.055V9.0625H157.965V3.94531H163.727V9.0625H167.555V13.3594H163.727V23.5156C163.727 25.4688 164.605 26.1328 166.324 26.1328C166.832 26.1328 167.203 26.0742 167.555 26.0352V30.2148C166.91 30.3125 165.992 30.4297 164.801 30.4297ZM179.996 30.4297C173.629 30.4297 169.625 26.3477 169.625 19.5312V19.4922C169.625 12.7539 173.727 8.63281 179.977 8.63281C186.246 8.63281 190.367 12.7148 190.367 19.4922V19.5312C190.367 26.3672 186.324 30.4297 179.996 30.4297ZM180.016 25.957C182.789 25.957 184.566 23.6133 184.566 19.5312V19.4922C184.566 15.4492 182.75 13.1055 179.977 13.1055C177.223 13.1055 175.426 15.4492 175.426 19.4922V19.5312C175.426 23.6328 177.203 25.957 180.016 25.957ZM195.699 30.332C193.922 30.332 192.535 28.9258 192.535 27.168C192.535 25.3906 193.922 24.0039 195.699 24.0039C197.457 24.0039 198.863 25.3906 198.863 27.168C198.863 28.9258 197.457 30.332 195.699 30.332ZM202.379 30V9.0625H208.082V12.7148H208.199C208.824 10.1367 210.523 8.63281 212.965 8.63281C213.59 8.63281 214.176 8.73047 214.605 8.84766V13.8672C214.137 13.6719 213.355 13.5547 212.535 13.5547C209.723 13.5547 208.082 15.2344 208.082 18.2812V30H202.379ZM224.078 30.4297C219.469 30.4297 216.852 27.4805 216.852 22.5781V9.0625H222.555V21.3867C222.555 24.1211 223.844 25.7031 226.402 25.7031C228.961 25.7031 230.582 23.8281 230.582 21.0938V9.0625H236.285V30H230.582V26.543H230.465C229.391 28.9453 227.242 30.4297 224.078 30.4297Z" fill="#FF6B00"/>
</svg>
